<svg id="Component_9_1" data-name="Component 9 – 1" xmlns="http://www.w3.org/2000/svg" width="408.887" height="117.157" viewBox="0 0 408.887 117.157">
  <path id="Subtraction_13" data-name="Subtraction 13" d="M58.891,0h-.072a60.006,60.006,0,0,0-6.014.3c-1.955.2-3.92.5-5.84.888-1.895.386-3.791.872-5.637,1.443-1.825.565-3.643,1.228-5.4,1.97a58.828,58.828,0,0,0-31.3,31.174c-.745,1.754-1.41,3.565-1.978,5.382C2.07,43,1.583,44.885,1.195,46.773A58.506,58.506,0,0,0,.3,52.589a59.213,59.213,0,0,0,0,11.979,58.5,58.5,0,0,0,.891,5.816C1.583,72.271,2.07,74.16,2.644,76c.568,1.817,1.233,3.628,1.978,5.382A58.659,58.659,0,0,0,17.228,100a58.927,58.927,0,0,0,18.7,12.554c1.761.742,3.579,1.4,5.4,1.97,1.846.572,3.742,1.057,5.637,1.443,1.92.391,3.885.69,5.84.888a60.01,60.01,0,0,0,6.014.3h.072V0Z" transform="matrix(1, 0, 0, 1, 0, 0)" fill="#ff9254"/>
  <path id="Subtraction_14" data-name="Subtraction 14" d="M58.891,0h-.072a60.006,60.006,0,0,0-6.014.3c-1.955.2-3.92.5-5.84.888-1.895.386-3.791.872-5.637,1.443-1.825.565-3.643,1.228-5.4,1.97a58.828,58.828,0,0,0-31.3,31.174c-.745,1.754-1.41,3.565-1.978,5.382C2.07,43,1.583,44.885,1.195,46.773A58.506,58.506,0,0,0,.3,52.589a59.213,59.213,0,0,0,0,11.979,58.5,58.5,0,0,0,.891,5.816C1.583,72.271,2.07,74.16,2.644,76c.568,1.817,1.233,3.628,1.978,5.382A58.659,58.659,0,0,0,17.228,100a58.927,58.927,0,0,0,18.7,12.554c1.761.742,3.579,1.4,5.4,1.97,1.846.572,3.742,1.057,5.637,1.443,1.92.391,3.885.69,5.84.888a60.01,60.01,0,0,0,6.014.3h.072V0Z" transform="matrix(1, 0, 0, 1, 56.828, 0)" fill="#fff"/>
  <path id="Subtraction_15" data-name="Subtraction 15" d="M58.891,0h-.072a60.006,60.006,0,0,0-6.014.3c-1.955.2-3.92.5-5.84.888-1.895.386-3.791.872-5.637,1.443-1.825.565-3.643,1.228-5.4,1.97a58.828,58.828,0,0,0-31.3,31.174c-.745,1.754-1.41,3.565-1.978,5.382C2.07,43,1.583,44.885,1.195,46.773A58.506,58.506,0,0,0,.3,52.589a59.213,59.213,0,0,0,0,11.979,58.5,58.5,0,0,0,.891,5.816C1.583,72.271,2.07,74.16,2.644,76c.568,1.817,1.233,3.628,1.978,5.382A58.659,58.659,0,0,0,17.228,100a58.927,58.927,0,0,0,18.7,12.554c1.761.742,3.579,1.4,5.4,1.97,1.846.572,3.742,1.057,5.637,1.443,1.92.391,3.885.69,5.84.888a60.01,60.01,0,0,0,6.014.3h.072V0Z" transform="matrix(1, 0, 0, 1, 232.357, 0)" fill="#ff9254"/>
  <ellipse id="Ellipse_1609" data-name="Ellipse 1609" cx="58.819" cy="58.578" rx="58.819" ry="58.578" transform="matrix(1, 0, 0, 1, 114.719, 0)" fill="#ff9254"/>
  <ellipse id="Ellipse_1612" data-name="Ellipse 1612" cx="58.819" cy="58.578" rx="58.819" ry="58.578" transform="matrix(1, 0, 0, 1, 291.249, 0)" fill="#fff"/>
</svg>
