<svg id="Component_6_1" data-name="Component 6 – 1" xmlns="http://www.w3.org/2000/svg" width="241.07" height="69.073" viewBox="0 0 241.07 69.073">
  <path id="Subtraction_13" data-name="Subtraction 13" d="M34.721,0h-.043a35.378,35.378,0,0,0-3.546.178C29.98.295,28.821.471,27.689.7s-2.235.514-3.323.851-2.148.724-3.186,1.161A34.684,34.684,0,0,0,2.725,21.093c-.439,1.034-.832,2.1-1.166,3.173s-.626,2.2-.855,3.31a34.494,34.494,0,0,0-.525,3.429,34.911,34.911,0,0,0,0,7.062A34.493,34.493,0,0,0,.7,41.5c.229,1.113.516,2.226.855,3.31s.727,2.139,1.166,3.173a34.584,34.584,0,0,0,7.432,10.978,34.742,34.742,0,0,0,11.023,7.4c1.038.437,2.11.828,3.186,1.161s2.206.623,3.323.851,2.29.407,3.443.523a35.379,35.379,0,0,0,3.546.178h.043V0Z" transform="matrix(1, 0, 0, 1, 0, 0)" fill="#ff9254"/>
  <path id="Subtraction_14" data-name="Subtraction 14" d="M34.721,0h-.043a35.378,35.378,0,0,0-3.546.178C29.98.295,28.821.471,27.689.7s-2.235.514-3.323.851-2.148.724-3.186,1.161A34.684,34.684,0,0,0,2.725,21.093c-.439,1.034-.832,2.1-1.166,3.173s-.626,2.2-.855,3.31a34.494,34.494,0,0,0-.525,3.429,34.911,34.911,0,0,0,0,7.062A34.493,34.493,0,0,0,.7,41.5c.229,1.113.516,2.226.855,3.31s.727,2.139,1.166,3.173a34.584,34.584,0,0,0,7.432,10.978,34.742,34.742,0,0,0,11.023,7.4c1.038.437,2.11.828,3.186,1.161s2.206.623,3.323.851,2.29.407,3.443.523a35.379,35.379,0,0,0,3.546.178h.043V0Z" transform="matrix(1, 0, 0, 1, 33.504, 0)" fill="#101236"/>
  <path id="Subtraction_15" data-name="Subtraction 15" d="M34.721,0h-.043a35.378,35.378,0,0,0-3.546.178C29.98.295,28.821.471,27.689.7s-2.235.514-3.323.851-2.148.724-3.186,1.161A34.684,34.684,0,0,0,2.725,21.093c-.439,1.034-.832,2.1-1.166,3.173s-.626,2.2-.855,3.31a34.494,34.494,0,0,0-.525,3.429,34.911,34.911,0,0,0,0,7.062A34.493,34.493,0,0,0,.7,41.5c.229,1.113.516,2.226.855,3.31s.727,2.139,1.166,3.173a34.584,34.584,0,0,0,7.432,10.978,34.742,34.742,0,0,0,11.023,7.4c1.038.437,2.11.828,3.186,1.161s2.206.623,3.323.851,2.29.407,3.443.523a35.379,35.379,0,0,0,3.546.178h.043V0Z" transform="matrix(1, 0, 0, 1, 136.992, 0)" fill="#ff9254"/>
  <ellipse id="Ellipse_1609" data-name="Ellipse 1609" cx="34.678" cy="34.536" rx="34.678" ry="34.536" transform="matrix(1, 0, 0, 1, 67.636, 0)" fill="#ff9254"/>
  <ellipse id="Ellipse_1612" data-name="Ellipse 1612" cx="34.678" cy="34.536" rx="34.678" ry="34.536" transform="matrix(1, 0, 0, 1, 171.713, 0)" fill="#101236"/>
</svg>
