<svg xmlns="http://www.w3.org/2000/svg" width="30.48" height="30.48" viewBox="0 0 30.48 30.48"><g transform="translate(-991.785 -6367.047)"><g transform="translate(990.285 6365.547)"><path d="M9.87,3H23.61a6.87,6.87,0,0,1,6.87,6.87V23.61a6.87,6.87,0,0,1-6.87,6.87H9.87A6.87,6.87,0,0,1,3,23.61V9.87A6.87,6.87,0,0,1,9.87,3Z" fill="none" stroke="#101236" stroke-linecap="round" stroke-linejoin="round" stroke-width="3"/><path d="M23,16.625a5.5,5.5,0,1,1-4.63-4.63A5.5,5.5,0,0,1,23,16.625Z" transform="translate(-0.761 -0.75)" fill="none" stroke="#101236" stroke-linecap="round" stroke-linejoin="round" stroke-width="3"/><path d="M26.25,9.75h0" transform="translate(-1.953 -0.567)" fill="none" stroke="#101236" stroke-linecap="round" stroke-linejoin="round" stroke-width="3"/></g></g></svg>