<svg id="Component_9_1" data-name="Component 9 – 1" xmlns="http://www.w3.org/2000/svg" width="175.81" height="28.358" viewBox="0 0 175.81 28.358">
  <path id="Icon_awesome-star" data-name="Icon awesome-star" d="M14.666.986,11.05,8.318,2.959,9.5a1.773,1.773,0,0,0-.98,3.024l5.854,5.7L6.448,26.283a1.771,1.771,0,0,0,2.57,1.866l7.238-3.8,7.238,3.8a1.772,1.772,0,0,0,2.57-1.866l-1.384-8.058,5.854-5.7a1.773,1.773,0,0,0-.98-3.024l-8.091-1.18L17.845.986a1.774,1.774,0,0,0-3.179,0Z" transform="translate(-1.441 0.001)" fill="#ff9254"/>
  <path id="Icon_awesome-star-2" data-name="Icon awesome-star" d="M14.666.986,11.05,8.318,2.959,9.5a1.773,1.773,0,0,0-.98,3.024l5.854,5.7L6.448,26.283a1.771,1.771,0,0,0,2.57,1.866l7.238-3.8,7.238,3.8a1.772,1.772,0,0,0,2.57-1.866l-1.384-8.058,5.854-5.7a1.773,1.773,0,0,0-.98-3.024l-8.091-1.18L17.845.986a1.774,1.774,0,0,0-3.179,0Z" transform="translate(35.104 0.001)" fill="#ff9254"/>
  <path id="Icon_awesome-star-3" data-name="Icon awesome-star" d="M14.666.986,11.05,8.318,2.959,9.5a1.773,1.773,0,0,0-.98,3.024l5.854,5.7L6.448,26.283a1.771,1.771,0,0,0,2.57,1.866l7.238-3.8,7.238,3.8a1.772,1.772,0,0,0,2.57-1.866l-1.384-8.058,5.854-5.7a1.773,1.773,0,0,0-.98-3.024l-8.091-1.18L17.845.986a1.774,1.774,0,0,0-3.179,0Z" transform="translate(71.649 0.001)" fill="#ff9254"/>
  <path id="Icon_awesome-star-4" data-name="Icon awesome-star" d="M14.666.986,11.05,8.318,2.959,9.5a1.773,1.773,0,0,0-.98,3.024l5.854,5.7L6.448,26.283a1.771,1.771,0,0,0,2.57,1.866l7.238-3.8,7.238,3.8a1.772,1.772,0,0,0,2.57-1.866l-1.384-8.058,5.854-5.7a1.773,1.773,0,0,0-.98-3.024l-8.091-1.18L17.845.986a1.774,1.774,0,0,0-3.179,0Z" transform="translate(108.195 0.001)" fill="#ff9254"/>
  <path id="Icon_awesome-star-5" data-name="Icon awesome-star" d="M14.666.986,11.05,8.318,2.959,9.5a1.773,1.773,0,0,0-.98,3.024l5.854,5.7L6.448,26.283a1.771,1.771,0,0,0,2.57,1.866l7.238-3.8,7.238,3.8a1.772,1.772,0,0,0,2.57-1.866l-1.384-8.058,5.854-5.7a1.773,1.773,0,0,0-.98-3.024l-8.091-1.18L17.845.986a1.774,1.774,0,0,0-3.179,0Z" transform="translate(144.74 0.001)" fill="#ff9254"/>
</svg>
